<?xml version="1.0" encoding="utf-8"?>
<!-- Generator: Adobe Illustrator 19.1.0, SVG Export Plug-In . SVG Version: 6.00 Build 0)  -->
<!DOCTYPE svg PUBLIC "-//W3C//DTD SVG 1.1//EN" "http://www.w3.org/Graphics/SVG/1.1/DTD/svg11.dtd">
<svg version="1.1" id="Ebene_1" xmlns="http://www.w3.org/2000/svg" xmlns:xlink="http://www.w3.org/1999/xlink" x="0px" y="0px"
	 viewBox="0 0 1512 512" enable-background="new 0 0 1512 512" xml:space="preserve">
<path fill="#FFE7AC" d="M1482.1,512.1H29.9C13.4,512.1,0,498.7,0,482.2V30C0,13.5,13.4,0.1,29.9,0.1h1452.2
	c16.5,0,29.9,13.4,29.9,29.9v452.2C1512,498.7,1498.6,512.1,1482.1,512.1z"/>
<g>
	<path d="M92.4,211.1c10.8-7,22.3-12,34.3-15v-34.7c2.3-1.7,7.9-4.2,16.9-7.5c9-3.3,19-5.9,30.2-7.9h14.6v54.4h56.5v27.8h-56.5
		v110.3c0,17.6,2.2,29.8,6.6,36.6c4.4,6.8,11.8,10.2,22.1,10.2c5.1,0,10.9-0.4,17.3-1.1c6.4-0.7,12.3-2.1,17.8-4.1l3,14.1
		c-2.6,2.6-6.4,5.3-11.3,8.1c-5,2.9-10.7,5.6-17.1,8.1c-6.4,2.6-13.4,4.7-21,6.4c-7.6,1.7-15.5,2.6-23.8,2.6
		c-18.6,0-32.4-4.8-41.5-14.5c-9.1-9.7-13.7-25.3-13.7-46.9v-130H92.4V211.1z"/>
	<path d="M467.9,378.5c-2.3,4.9-5.9,9.8-10.9,14.8c-5,5-11.1,9.4-18.4,13.3c-7.3,3.8-15.7,7-25.3,9.4c-9.6,2.4-19.9,3.6-31,3.6
		c-17.7,0-33.4-2.6-47.1-7.9c-13.7-5.3-25.1-12.8-34.3-22.7c-9.1-9.8-16.1-21.6-20.8-35.3c-4.7-13.7-7.1-29.1-7.1-46.2
		c0-36.5,9.6-64.4,28.7-83.5c19.1-19.1,45.7-28.7,79.6-28.7c14.6,0,28.2,2,40.9,6c12.7,4,23.3,10.6,31.7,19.7
		c8.4,9.1,14.3,21.1,17.6,36c3.3,14.8,3.1,33-0.6,54.4H339.5c0.3,22.6,6.1,40.5,17.3,54c11.3,13.4,27.9,20.1,49.9,20.1
		c9.4,0,19.2-1.4,29.3-4.3c10.1-2.8,18-6.6,23.8-11.1L467.9,378.5z M379.5,219.7c-5.7,0-10.7,1-15.1,3c-4.4,2-8.2,5.6-11.5,10.9
		c-3.3,5.3-5.9,12.4-7.9,21.4c-2,9-3.4,20.3-4.3,34h68.5c2-22.3,0.7-39.4-3.8-51.4C400.9,225.7,392.2,219.7,379.5,219.7z"/>
	<path d="M636.6,299.7l67.6,88.1c7.4,2.3,14.4,5.7,21,10.3v16.3H616v-15.8c3.1-2.3,6.3-4.4,9.6-6.2c3.3-1.9,6.6-3.4,10.1-4.5
		l-40.7-58.6l-39.4,58.6c4,1.4,7.5,3,10.5,4.7c3,1.7,5.9,3.6,8.8,5.6v16.3H494v-16.3c4-2.3,7.6-4.3,10.9-6c3.3-1.7,7.1-3.2,11.3-4.3
		l63.4-79.2L515.9,227c-4-1.4-7.6-2.9-10.7-4.5c-3.1-1.6-6-3.5-8.6-5.8v-16.3h107.5v15.8c-3.4,2.3-6.5,4.4-9.2,6.2
		c-2.7,1.9-6.1,3.4-10.1,4.5l37.2,53.4l35.5-53.4c-4.9-1.4-8.7-3-11.6-4.7c-2.9-1.7-5.4-3.6-7.7-5.6v-16.3h79.2v16.3
		c-2.9,2-6,3.9-9.4,5.6c-3.4,1.7-7.7,3.3-12.8,4.7L636.6,299.7z"/>
	<path d="M732.9,211.1c10.8-7,22.3-12,34.3-15v-34.7c2.3-1.7,7.9-4.2,16.9-7.5c9-3.3,19-5.9,30.2-7.9h14.6v54.4h56.5v27.8h-56.5
		v110.3c0,17.6,2.2,29.8,6.6,36.6c4.4,6.8,11.8,10.2,22.1,10.2c5.1,0,10.9-0.4,17.3-1.1c6.4-0.7,12.3-2.1,17.8-4.1l3,14.1
		c-2.6,2.6-6.4,5.3-11.3,8.1c-5,2.9-10.7,5.6-17.1,8.1c-6.4,2.6-13.4,4.7-21,6.4c-7.6,1.7-15.5,2.6-23.8,2.6
		c-18.6,0-32.4-4.8-41.5-14.5c-9.1-9.7-13.7-25.3-13.7-46.9v-130h-34.3V211.1z"/>
	<path d="M1031.7,414.5H913.6v-16.3c4.3-2.3,8.7-4.2,13.3-5.8c4.6-1.6,9.6-3.1,15-4.5V230.4l-28.3-3.4v-16.3
		c4.3-1.7,9.6-3.4,16.1-5.1c6.4-1.7,13.2-3.2,20.3-4.5c7.1-1.3,14.1-2.4,21-3.4c6.9-1,12.8-1.8,18-2.4h14.6v192.6
		c5.7,1.4,10.8,2.9,15.4,4.5c4.6,1.6,8.8,3.5,12.8,5.8V414.5z M935.4,130.2c0-10,3.4-17.8,10.2-23.5c6.8-5.7,15.5-8.6,26.2-8.6
		c10.7,0,19.5,2.9,26.2,8.6c6.8,5.7,10.2,13.6,10.2,23.5c0,9.7-3.4,17.4-10.2,23.1c-6.8,5.7-15.5,8.6-26.2,8.6
		c-10.7,0-19.5-2.8-26.2-8.6C938.8,147.6,935.4,139.9,935.4,130.2z"/>
	<path d="M1173.9,414.5h-118.2v-16.3c9.4-4.6,18.8-8,28.3-10.3V127.7l-32.5-3.4v-16.3c3.7-1.7,8.8-3.4,15.4-5.1
		c6.6-1.7,13.6-3.2,21.2-4.5c7.6-1.3,15.1-2.4,22.7-3.4c7.6-1,14.3-1.8,20.3-2.4h14.6v295.4c9.4,2.3,18.8,5.7,28.3,10.3V414.5z"/>
	<path d="M1392.6,378.5c-2.3,4.9-5.9,9.8-10.9,14.8c-5,5-11.1,9.4-18.4,13.3c-7.3,3.8-15.7,7-25.3,9.4c-9.6,2.4-19.9,3.6-31,3.6
		c-17.7,0-33.4-2.6-47.1-7.9c-13.7-5.3-25.1-12.8-34.2-22.7c-9.1-9.8-16.1-21.6-20.8-35.3c-4.7-13.7-7.1-29.1-7.1-46.2
		c0-36.5,9.6-64.4,28.7-83.5c19.1-19.1,45.7-28.7,79.6-28.7c14.6,0,28.2,2,40.9,6c12.7,4,23.3,10.6,31.7,19.7
		c8.4,9.1,14.3,21.1,17.6,36c3.3,14.8,3.1,33-0.6,54.4h-131.4c0.3,22.6,6.1,40.5,17.3,54c11.3,13.4,27.9,20.1,49.9,20.1
		c9.4,0,19.2-1.4,29.3-4.3c10.1-2.8,18-6.6,23.8-11.1L1392.6,378.5z M1304.2,219.7c-5.7,0-10.7,1-15.1,3c-4.4,2-8.2,5.6-11.5,10.9
		c-3.3,5.3-5.9,12.4-7.9,21.4c-2,9-3.4,20.3-4.3,34h68.5c2-22.3,0.7-39.4-3.8-51.4C1325.6,225.7,1317,219.7,1304.2,219.7z"/>
</g>
<g>
</g>
<g>
</g>
<g>
</g>
<g>
</g>
<g>
</g>
<g>
</g>
<g>
</g>
<g>
</g>
<g>
</g>
<g>
</g>
<g>
</g>
<g>
</g>
<g>
</g>
<g>
</g>
<g>
</g>
</svg>
