<?xml version="1.0" encoding="utf-8"?>
<!-- Generator: Adobe Illustrator 19.1.0, SVG Export Plug-In . SVG Version: 6.00 Build 0)  -->
<!DOCTYPE svg PUBLIC "-//W3C//DTD SVG 1.1//EN" "http://www.w3.org/Graphics/SVG/1.1/DTD/svg11.dtd">
<svg version="1.1" id="textile_logo" xmlns="http://www.w3.org/2000/svg" xmlns:xlink="http://www.w3.org/1999/xlink" x="0px"
	 y="0px" viewBox="0 0 690 512" enable-background="new 0 0 690 512" xml:space="preserve">
<path fill="#DADADA" d="M633.5,485.2h-577c-16.6,0-30-13.4-30-30V56.8c0-16.6,13.4-30,30-30h577c16.6,0,30,13.4,30,30v398.5
	C663.5,471.8,650.1,485.2,633.5,485.2z"/>
<path d="M119,184.3c10.8-7,22.3-12,34.3-15v-34.7c2.3-1.7,7.9-4.2,16.9-7.5c9-3.3,19-5.9,30.2-7.9h14.6v54.4h56.5v27.8h-56.5v110.3
	c0,17.6,2.2,29.8,6.6,36.6c4.4,6.8,11.8,10.2,22.1,10.2c5.1,0,10.9-0.4,17.3-1.1c6.4-0.7,12.3-2.1,17.8-4.1l3,14.1
	c-2.6,2.6-6.4,5.3-11.3,8.1c-5,2.9-10.7,5.6-17.1,8.1c-6.4,2.6-13.4,4.7-21,6.4c-7.6,1.7-15.5,2.6-23.8,2.6
	c-18.6,0-32.4-4.8-41.5-14.5c-9.1-9.7-13.7-25.3-13.7-46.9v-130H119V184.3z"/>
<path d="M313.3,357.3c0-10.3,3.3-18.5,9.8-24.8c6.6-6.3,15.3-9.4,26.1-9.4c10.8,0,19.7,3.1,26.5,9.4c6.8,6.3,10.3,14.6,10.3,24.8
	c0,10.3-3.4,18.5-10.3,24.6c-6.9,6.1-15.7,9.2-26.5,9.2c-10.9,0-19.6-3.1-26.1-9.2C316.6,375.7,313.3,367.5,313.3,357.3z"/>
</svg>
