<?xml version="1.0" encoding="utf-8"?>
<!DOCTYPE svg>
<svg version="1.1" baseProfile="full" xmlns="http://www.w3.org/2000/svg" xmlns:xlink="http://www.w3.org/1999/xlink" x="0px" y="0px" width="640px" height="460px" viewBox="0 0 640 460" enable-background="new 0 0 640 460" xml:space="preserve">
<path fill="#dadada" d="M640,30c0-16.569-13.432-30-30-30H30C13.432,0,0,13.432,0,30v400c0,16.569,13.432,30,30,30h580c16.568,0,30-13.431,30-30V30z"/>
<path d="M244.446,350.223c-5.024,2.913-10.75,5.625-17.181,8.135c-6.43,2.611-13.463,4.721-21.099,6.428c-7.636,1.707-15.573,2.611-23.912,2.611c-18.688,0-32.653-4.821-41.796-14.563c-9.143-9.742-14.458-25.41-14.458-47.105V174H92v-16c11.052-7.031,21.943-12.987,34-16v-33.93c2.009-1.707,8.631-4.319,17.673-7.633c9.042-3.314,19.29-6.428,30.443-8.437H188v56h57.149v26H188v111.943c0,17.677,2.995,29.93,7.516,36.76c4.421,6.83,11.755,10.245,22.104,10.245c5.124,0,10.951-0.402,17.381-1.105c6.43-0.703,12.358-2.109,17.884-4.118L256,341.887C253.388,344.598,249.469,347.31,244.446,350.223z"/>
<path d="M350.443,356.45c-6.932,6.127-15.774,9.24-26.625,9.24c-10.951,0-19.692-3.114-26.223-9.24c-6.631-6.127-9.846-14.362-9.846-24.707c0-10.345,3.316-18.581,9.846-24.908c6.631-6.328,15.372-9.441,26.223-9.441c10.851,0,19.793,3.114,26.625,9.441c6.832,6.327,10.349,14.664,10.349,24.908C360.791,341.987,357.375,350.223,350.443,356.45z"/>
</svg>
