<?xml version="1.0" encoding="utf-8"?>
<!-- Generator: Adobe Illustrator 19.1.0, SVG Export Plug-In . SVG Version: 6.00 Build 0)  -->
<!DOCTYPE svg PUBLIC "-//W3C//DTD SVG 1.1//EN" "http://www.w3.org/Graphics/SVG/1.1/DTD/svg11.dtd">
<svg version="1.1" id="Ebene_1" xmlns="http://www.w3.org/2000/svg" xmlns:xlink="http://www.w3.org/1999/xlink" x="0px" y="0px"
	 viewBox="0 0 1512 512" enable-background="new 0 0 1512 512" xml:space="preserve">
<g>
	<path d="M1304.2,219.7c-5.7,0-10.7,1-15.1,3c-4.4,2-8.2,5.6-11.5,10.9c-3.3,5.3-5.9,12.4-7.9,21.4c-2,9-3.4,20-4.3,34h68.5
		c2-22,0.7-39.4-3.8-51.4C1325.6,225.7,1317,219.7,1304.2,219.7z"/>
	<path d="M379.5,219.7c-5.7,0-10.7,1-15.1,3c-4.4,2-8.2,5.6-11.5,10.9c-3.3,5.3-5.9,12.4-7.9,21.4c-2,9-3.4,20-4.3,34h68.5
		c2-22,0.7-39.4-3.8-51.4C400.9,225.7,392.2,219.7,379.5,219.7z"/>
	<path d="M1512,29.9c0-16.5-13.4-29.9-29.9-29.9H29.9C13.4,0,0,13.4,0,29.9v452.2C0,498.6,13.4,512,29.9,512h1452.2
		c16.5,0,29.9-13.4,29.9-29.9V29.9z M945.6,106.7c6.8-5.7,15.5-8.6,26.2-8.6c10.7,0,19.5,2.9,26.2,8.6c6.8,5.7,10.2,13.6,10.2,23.5
		c0,9.7-3.4,17.4-10.2,23.1c-6.8,5.7-15.5,8.6-26.2,8.6c-10.7,0-19.5-2.8-26.2-8.6c-6.8-5.7-10.2-13.4-10.2-23.1
		C935.4,120.2,938.8,112.4,945.6,106.7z M243.8,402.5c-5,2.9-10.7,5.6-17.1,8.1c-6.4,2.6-13.4,4.7-21,6.4
		c-7.6,1.7-15.5,2.6-23.8,2.6c-18.6,0-32.3-4.8-41.4-14.5c-9.1-9.7-13.6-25.3-13.6-46.9V228H92v-16.9c11-7,23-12,35-15v-34.7
		c2-1.7,7.8-4.2,16.8-7.5c9-3.3,18.9-5.9,30-7.9H188v54h57v28h-57v110.5c0,17.6,2.4,29.8,6.8,36.6c4.4,6.8,11.9,10.2,22.1,10.2
		c5.1,0,11-0.4,17.4-1.1c6.4-0.7,12.4-2.1,17.8-4.1l3,14.1C252.6,396.9,248.8,399.6,243.8,402.5z M470.9,311H339.5
		c0.3,23,6.1,40.7,17.3,54.1c11.3,13.4,27.9,20.2,49.9,20.2c9.4,0,19.2-1.4,29.3-4.2c10.1-2.8,18-6.5,23.8-11.1l8.1,8.6
		c-2.3,4.9-5.9,9.8-10.9,14.8c-5,5-11.1,9.4-18.4,13.3c-7.3,3.8-15.7,7-25.3,9.4c-9.6,2.4-19.9,3.6-31,3.6
		c-17.7,0-33.4-2.6-47.1-7.9c-13.7-5.3-25.1-12.8-34.3-22.7c-9.1-9.8-16.1-21.6-20.8-35.3c-4.7-13.7-7.1-29.1-7.1-46.2
		c0-36.5,9.6-64.4,28.7-83.5c19.1-19.1,45.7-28.7,79.6-28.7c14.6,0,28.2,2,40.9,6c12.7,4,23.3,10.6,31.7,19.7
		c8.4,9.1,14.3,21,17.6,35.8C474.8,271.6,474.6,290,470.9,311z M725,414H616v-15.4c3-2.3,6.4-4.4,9.7-6.2c3.3-1.9,6.6-3.4,10.1-4.5
		l-40.7-58.6l-39.4,58.6c4,1.4,7.5,3,10.5,4.7c3,1.7,5.8,3.6,8.8,5.6V414h-81v-15.8c4-2.3,7.7-4.3,10.9-6c3.3-1.7,7.1-3.2,11.4-4.3
		l63.4-79.2L515.9,227c-4-1.4-7.4-2.9-10.5-4.5c-3.1-1.6-6.4-3.5-8.4-5.8V200h107v16.3c-3,2.3-6.5,4.4-9.2,6.2
		c-2.7,1.9-6.1,3.4-10,4.5l37.3,53.4l35.5-53.4c-4.9-1.4-8.9-3-11.7-4.7c-2.9-1.7-4.9-3.6-7.9-5.6V200h80v16.7c-3,2-6.2,3.9-9.7,5.6
		c-3.4,1.7-7.8,3.3-13,4.7l-58.7,72.7l67.5,88.1c7.4,2.3,14.8,5.7,20.8,10.3V414z M884.3,402.5c-5,2.9-10.7,5.6-17.1,8.1
		c-6.4,2.6-13.4,4.7-21,6.4c-7.6,1.7-15.5,2.6-23.8,2.6c-18.6,0-32.5-4.8-41.6-14.5c-9.1-9.7-13.8-25.3-13.8-46.9V228h-34v-16.9
		c11-7,22-12,34-15v-34.7c2-1.7,8-4.2,17-7.5c9-3.3,19.1-5.9,30.3-7.9H829v54h56v28h-56v110.5c0,17.6,2.1,29.8,6.6,36.6
		c4.4,6.8,11.7,10.2,22,10.2c5.1,0,10.9-0.4,17.3-1.1c6.4-0.7,12.3-2.1,17.8-4.1l3,14.1C893,396.9,889.3,399.6,884.3,402.5z
		 M1032,414H914v-15.8c4-2.3,8.6-4.2,13.1-5.8c4.6-1.6,8.9-3.1,14.9-4.5V230.4l-28-3.4v-16.3c4-1.7,9.4-3.4,15.9-5.1
		c6.4-1.7,13.1-3.2,20.2-4.5c7.1-1.3,14.1-2.6,20.9-3.6c6.9-1,12.8-1.5,17.9-2.5h15v192.9c5,1.4,10.7,2.9,15.3,4.5
		c4.6,1.6,8.7,3.5,12.7,5.8V414z M1174,414h-118v-15.8c9-4.6,19-8,28-10.3V127.7l-33-3.4v-16.3c4-1.7,9.1-3.4,15.6-5.1
		c6.6-1.7,13.7-3.2,21.3-4.5c7.6-1.3,15.2-2.2,22.7-3.2c7.6-1,14.4-2.1,20.4-2.1h14.9v294.9c9,2.3,18,5.7,28,10.3V414z M1395.6,311
		h-131.4c0.3,23,6.1,40.7,17.3,54.1c11.3,13.4,27.9,20.2,49.9,20.2c9.4,0,19.2-1.4,29.3-4.2c10.1-2.8,18-6.5,23.8-11.1l8.1,8.6
		c-2.3,4.9-5.9,9.8-10.9,14.8c-5,5-11.1,9.4-18.4,13.3c-7.3,3.8-15.7,7-25.3,9.4c-9.6,2.4-19.9,3.6-31,3.6
		c-17.7,0-33.4-2.6-47.1-7.9c-13.7-5.3-25.1-12.8-34.2-22.7c-9.1-9.8-16.1-21.6-20.8-35.3c-4.7-13.7-7.1-29.1-7.1-46.2
		c0-36.5,9.6-64.4,28.7-83.5c19.1-19.1,45.7-28.7,79.6-28.7c14.6,0,28.2,2,40.9,6c12.7,4,23.3,10.6,31.7,19.7
		c8.4,9.1,14.3,21,17.6,35.8C1399.6,271.6,1399.3,290,1395.6,311z"/>
</g>
<g>
</g>
<g>
</g>
<g>
</g>
<g>
</g>
<g>
</g>
<g>
</g>
<g>
</g>
<g>
</g>
<g>
</g>
<g>
</g>
<g>
</g>
<g>
</g>
<g>
</g>
<g>
</g>
<g>
</g>
</svg>
