<?xml version="1.0" encoding="utf-8"?>
<!-- Generator: Adobe Illustrator 19.1.0, SVG Export Plug-In . SVG Version: 6.00 Build 0)  -->
<!DOCTYPE svg PUBLIC "-//W3C//DTD SVG 1.1//EN" "http://www.w3.org/Graphics/SVG/1.1/DTD/svg11.dtd">
<svg version="1.1" id="textile_logo" xmlns="http://www.w3.org/2000/svg" xmlns:xlink="http://www.w3.org/1999/xlink" x="0px"
	 y="0px" viewBox="0 0 690 512" enable-background="new 0 0 690 512" xml:space="preserve">
<path d="M664,57c0-16.6-13.4-30-30-30H57c-16.6,0-30,13.4-30,30v398c0,16.6,13.4,30,30,30h577c16.6,0,30-13.4,30-30V57z
	 M270.3,375.7c-5,2.9-10.7,5.6-17.1,8.1c-6.4,2.6-13.4,4.7-21,6.4c-7.6,1.7-15.5,2.6-23.8,2.6c-18.6,0-32.5-4.8-41.6-14.5
	c-9.1-9.7-13.8-25.3-13.8-46.9V201h-34v-16.7c11-7,22-12,34-15v-34.7c2-1.7,8-4.3,17-7.6c9-3.3,19.2-6,30.3-8H215v55h56v27h-56
	v110.7c0,17.6,2.1,29.8,6.6,36.6c4.4,6.8,11.7,10.2,22,10.2c5.1,0,10.9-0.4,17.3-1.1c6.4-0.7,12.3-2.1,17.8-4.1l3,14.1
	C279.1,370.1,275.3,372.8,270.3,375.7z M375.8,381.9c-6.9,6.1-15.7,9.2-26.5,9.2c-10.9,0-19.6-3.1-26.1-9.2
	c-6.6-6.1-9.8-14.3-9.8-24.6c0-10.3,3.3-18.5,9.8-24.8c6.6-6.3,15.3-9.4,26.1-9.4c10.8,0,19.7,3.1,26.5,9.4
	c6.8,6.3,10.3,14.6,10.3,24.8C386.1,367.5,382.7,375.7,375.8,381.9z"/>
</svg>
