<svg enable-background="new 0 0 690 512" viewBox="0 0 690 512" xmlns="http://www.w3.org/2000/svg"><path d="m633.5 485.2h-577c-16.6 0-30-13.4-30-30v-398.4c0-16.6 13.4-30 30-30h577c16.6 0 30 13.4 30 30v398.5c0 16.5-13.4 29.9-30 29.9z" fill="#ffe7ac"/><path d="m119 184.3c10.8-7 22.3-12 34.3-15v-34.7c2.3-1.7 7.9-4.2 16.9-7.5s19-5.9 30.2-7.9h14.6v54.4h56.5v27.8h-56.5v110.3c0 17.6 2.2 29.8 6.6 36.6s11.8 10.2 22.1 10.2c5.1 0 10.9-.4 17.3-1.1s12.3-2.1 17.8-4.1l3 14.1c-2.6 2.6-6.4 5.3-11.3 8.1-5 2.9-10.7 5.6-17.1 8.1-6.4 2.6-13.4 4.7-21 6.4s-15.5 2.6-23.8 2.6c-18.6 0-32.4-4.8-41.5-14.5s-13.7-25.3-13.7-46.9v-130h-34.4z"/><path d="m313.3 357.3c0-10.3 3.3-18.5 9.8-24.8 6.6-6.3 15.3-9.4 26.1-9.4s19.7 3.1 26.5 9.4 10.3 14.6 10.3 24.8c0 10.3-3.4 18.5-10.3 24.6s-15.7 9.2-26.5 9.2c-10.9 0-19.6-3.1-26.1-9.2-6.5-6.2-9.8-14.4-9.8-24.6z"/></svg>