<svg enable-background="new 0 0 1512 512" viewBox="0 0 1512 512" xmlns="http://www.w3.org/2000/svg"><path d="m1482.1 512.1h-1452.2c-16.5 0-29.9-13.4-29.9-29.9v-452.2c0-16.5 13.4-29.9 29.9-29.9h1452.2c16.5 0 29.9 13.4 29.9 29.9v452.2c0 16.5-13.4 29.9-29.9 29.9z" fill="#ffe7ac"/><path d="m92.4 211.1c10.8-7 22.3-12 34.3-15v-34.7c2.3-1.7 7.9-4.2 16.9-7.5s19-5.9 30.2-7.9h14.6v54.4h56.5v27.8h-56.5v110.3c0 17.6 2.2 29.8 6.6 36.6s11.8 10.2 22.1 10.2c5.1 0 10.9-.4 17.3-1.1s12.3-2.1 17.8-4.1l3 14.1c-2.6 2.6-6.4 5.3-11.3 8.1-5 2.9-10.7 5.6-17.1 8.1-6.4 2.6-13.4 4.7-21 6.4s-15.5 2.6-23.8 2.6c-18.6 0-32.4-4.8-41.5-14.5s-13.7-25.3-13.7-46.9v-130h-34.4z"/><path d="m467.9 378.5c-2.3 4.9-5.9 9.8-10.9 14.8s-11.1 9.4-18.4 13.3c-7.3 3.8-15.7 7-25.3 9.4s-19.9 3.6-31 3.6c-17.7 0-33.4-2.6-47.1-7.9s-25.1-12.8-34.3-22.7c-9.1-9.8-16.1-21.6-20.8-35.3s-7.1-29.1-7.1-46.2c0-36.5 9.6-64.4 28.7-83.5s45.7-28.7 79.6-28.7c14.6 0 28.2 2 40.9 6s23.3 10.6 31.7 19.7 14.3 21.1 17.6 36c3.3 14.8 3.1 33-.6 54.4h-131.4c.3 22.6 6.1 40.5 17.3 54 11.3 13.4 27.9 20.1 49.9 20.1 9.4 0 19.2-1.4 29.3-4.3 10.1-2.8 18-6.6 23.8-11.1zm-88.4-158.8c-5.7 0-10.7 1-15.1 3s-8.2 5.6-11.5 10.9-5.9 12.4-7.9 21.4-3.4 20.3-4.3 34h68.5c2-22.3.7-39.4-3.8-51.4-4.5-11.9-13.2-17.9-25.9-17.9z"/><path d="m636.6 299.7 67.6 88.1c7.4 2.3 14.4 5.7 21 10.3v16.3h-109.2v-15.8c3.1-2.3 6.3-4.4 9.6-6.2 3.3-1.9 6.6-3.4 10.1-4.5l-40.7-58.6-39.4 58.6c4 1.4 7.5 3 10.5 4.7s5.9 3.6 8.8 5.6v16.3h-80.9v-16.3c4-2.3 7.6-4.3 10.9-6s7.1-3.2 11.3-4.3l63.4-79.2-63.7-81.7c-4-1.4-7.6-2.9-10.7-4.5s-6-3.5-8.6-5.8v-16.3h107.5v15.8c-3.4 2.3-6.5 4.4-9.2 6.2-2.7 1.9-6.1 3.4-10.1 4.5l37.2 53.4 35.5-53.4c-4.9-1.4-8.7-3-11.6-4.7s-5.4-3.6-7.7-5.6v-16.3h79.2v16.3c-2.9 2-6 3.9-9.4 5.6s-7.7 3.3-12.8 4.7z"/><path d="m732.9 211.1c10.8-7 22.3-12 34.3-15v-34.7c2.3-1.7 7.9-4.2 16.9-7.5s19-5.9 30.2-7.9h14.6v54.4h56.5v27.8h-56.5v110.3c0 17.6 2.2 29.8 6.6 36.6s11.8 10.2 22.1 10.2c5.1 0 10.9-.4 17.3-1.1s12.3-2.1 17.8-4.1l3 14.1c-2.6 2.6-6.4 5.3-11.3 8.1-5 2.9-10.7 5.6-17.1 8.1-6.4 2.6-13.4 4.7-21 6.4s-15.5 2.6-23.8 2.6c-18.6 0-32.4-4.8-41.5-14.5s-13.7-25.3-13.7-46.9v-130h-34.3v-16.9z"/><path d="m1031.7 414.5h-118.1v-16.3c4.3-2.3 8.7-4.2 13.3-5.8s9.6-3.1 15-4.5v-157.5l-28.3-3.4v-16.3c4.3-1.7 9.6-3.4 16.1-5.1 6.4-1.7 13.2-3.2 20.3-4.5s14.1-2.4 21-3.4 12.8-1.8 18-2.4h14.6v192.6c5.7 1.4 10.8 2.9 15.4 4.5s8.8 3.5 12.8 5.8v16.3zm-96.3-284.3c0-10 3.4-17.8 10.2-23.5s15.5-8.6 26.2-8.6 19.5 2.9 26.2 8.6c6.8 5.7 10.2 13.6 10.2 23.5 0 9.7-3.4 17.4-10.2 23.1s-15.5 8.6-26.2 8.6-19.5-2.8-26.2-8.6c-6.8-5.7-10.2-13.4-10.2-23.1z"/><path d="m1173.9 414.5h-118.2v-16.3c9.4-4.6 18.8-8 28.3-10.3v-260.2l-32.5-3.4v-16.3c3.7-1.7 8.8-3.4 15.4-5.1s13.6-3.2 21.2-4.5 15.1-2.4 22.7-3.4 14.3-1.8 20.3-2.4h14.6v295.4c9.4 2.3 18.8 5.7 28.3 10.3v16.2z"/><path d="m1392.6 378.5c-2.3 4.9-5.9 9.8-10.9 14.8s-11.1 9.4-18.4 13.3c-7.3 3.8-15.7 7-25.3 9.4s-19.9 3.6-31 3.6c-17.7 0-33.4-2.6-47.1-7.9s-25.1-12.8-34.2-22.7c-9.1-9.8-16.1-21.6-20.8-35.3s-7.1-29.1-7.1-46.2c0-36.5 9.6-64.4 28.7-83.5s45.7-28.7 79.6-28.7c14.6 0 28.2 2 40.9 6s23.3 10.6 31.7 19.7 14.3 21.1 17.6 36c3.3 14.8 3.1 33-.6 54.4h-131.4c.3 22.6 6.1 40.5 17.3 54 11.3 13.4 27.9 20.1 49.9 20.1 9.4 0 19.2-1.4 29.3-4.3 10.1-2.8 18-6.6 23.8-11.1zm-88.4-158.8c-5.7 0-10.7 1-15.1 3s-8.2 5.6-11.5 10.9-5.9 12.4-7.9 21.4-3.4 20.3-4.3 34h68.5c2-22.3.7-39.4-3.8-51.4-4.5-11.9-13.1-17.9-25.9-17.9z"/></svg>