<svg viewBox="0 0 24 24" xmlns="http://www.w3.org/2000/svg"><path d="m0 0h24v24h-24z" fill="#ffe7ac"/><path d="m3 7.3c.7-.5 1.5-.8 2.3-1v-2.3c.2-.1.5-.3 1.1-.5s1.2-.4 2-.5h1v3.6h3.6v1.8h-3.7v7.3c0 1.2.1 2 .4 2.4s.8.7 1.5.7c.3 0 .7 0 1.1-.1s.8-.1 1.2-.3l.2.9c-.2.2-.4.3-.7.5s-.7.4-1.1.5c-.4.2-.9.3-1.4.4-.5.2-1.1.3-1.6.3-1.2 0-2.1-.3-2.7-1s-.9-1.6-.9-3v-8.6h-2.3z"/><path d="m15.8 18.7c0-.7.2-1.2.6-1.6s1-.6 1.7-.6 1.3.2 1.7.6.7 1 .7 1.6c0 .7-.2 1.2-.7 1.6s-1 .6-1.7.6-1.3-.2-1.7-.6-.6-1-.6-1.6z"/></svg>
